HIERARCHY
ROOT SpineBase
{
  OFFSET 0.000000 0.000000 0.000000
  CHANNELS 6 Xposition Yposition Zposition Zrotation Xrotation Yrotation
  JOINT SpineMid
  {
    OFFSET 0.000000 33.180665 0.000000
    CHANNELS 3 Zrotation Xrotation Yrotation
    JOINT SpineShoulder
    {
      OFFSET -0.238710 24.685945 -0.947406
      CHANNELS 3 Zrotation Xrotation Yrotation
      JOINT Neck
      {
        OFFSET -0.168454 8.174372 -0.648546
        CHANNELS 3 Zrotation Xrotation Yrotation
        JOINT Head
        {
          OFFSET -0.166187 12.322450 2.786426
          CHANNELS 3 Zrotation Xrotation Yrotation
          End Site
          {
            OFFSET 0 0 0
          }
        }
      }
      JOINT ShoulderLeft
      {
        OFFSET -13.797574 -6.857671 -7.914539
        CHANNELS 3 Zrotation Xrotation Yrotation
        JOINT ElbowLeft
        {
          OFFSET -4.837016 -26.140161 0.308521
          CHANNELS 3 Zrotation Xrotation Yrotation
          JOINT WristLeft
          {
            OFFSET -5.756988 -26.081818 5.694105
            CHANNELS 3 Zrotation Xrotation Yrotation
            JOINT HandLeft
            {
              OFFSET -0.256930 -7.044875 1.655210
              CHANNELS 3 Zrotation Xrotation Yrotation
              JOINT HandTipLeft
              {
                OFFSET 0.333567 -6.953101 -0.498423
                CHANNELS 3 Zrotation Xrotation Yrotation
                End Site
                {
                  OFFSET 0 0 0
                }
              }
              JOINT ThumbLeft
              {
                OFFSET 3.327042 1.840058 -0.337937
                CHANNELS 3 Zrotation Xrotation Yrotation
                End Site
                {
                  OFFSET 0 0 0
                }
              }
            }
          }
        }
      }
      JOINT ShoulderRight
      {
        OFFSET 14.686607 -5.590673 -1.533214
        CHANNELS 3 Zrotation Xrotation Yrotation
        JOINT ElbowRight
        {
          OFFSET 8.746864 -24.092237 6.404163
          CHANNELS 3 Zrotation Xrotation Yrotation
          JOINT WristRight
          {
            OFFSET -27.615099 -5.118346 -7.290858
            CHANNELS 3 Zrotation Xrotation Yrotation
            JOINT HandRight
            {
              OFFSET -16.423607 -7.691975 -3.293916
              CHANNELS 3 Zrotation Xrotation Yrotation
              JOINT HandTipRight
              {
                OFFSET -5.115668 -6.506685 1.621269
                CHANNELS 3 Zrotation Xrotation Yrotation
                End Site
                {
                  OFFSET 0 0 0
                }
              }
              JOINT ThumbRight
              {
                OFFSET 4.160261 -5.521026 1.531737
                CHANNELS 3 Zrotation Xrotation Yrotation
                End Site
                {
                  OFFSET 0 0 0
                }
              }
            }
          }
        }
      }
    }
  }
  JOINT HipLeft
  {
    OFFSET -6.944461 1.775605 -4.749137
    CHANNELS 3 Zrotation Xrotation Yrotation
    JOINT KneeLeft
    {
      OFFSET -2.164301 -36.362578 -3.025770
      CHANNELS 3 Zrotation Xrotation Yrotation
      JOINT AnkleLeft
      {
        OFFSET -3.537324 -44.198908 0.265555
        CHANNELS 3 Zrotation Xrotation Yrotation
        JOINT FootLeft
        {
          OFFSET 6.332421 -2.057591 -8.507584
          CHANNELS 3 Zrotation Xrotation Yrotation
          End Site
          {
            OFFSET 0 0 0
          }
        }
      }
    }
  }
  JOINT HipRight
  {
    OFFSET 5.269206 1.127885 -1.455445
    CHANNELS 3 Zrotation Xrotation Yrotation
    JOINT KneeRight
    {
      OFFSET 5.389814 -35.693628 -0.670760
      CHANNELS 3 Zrotation Xrotation Yrotation
      JOINT AnkleRight
      {
        OFFSET 1.936744 -41.233261 1.351995
        CHANNELS 3 Zrotation Xrotation Yrotation
        JOINT FootRight
        {
          OFFSET -1.447838 -7.048986 -5.853589
          CHANNELS 3 Zrotation Xrotation Yrotation
          End Site
          {
            OFFSET 0 0 0
          }
        }
      }
    }
  }
}
MOTION
Frames: 5
Frame Time: 0.033333
60.332694 82.654026 220.728423 0.135607 -1.002102 -13.347024 -0.363317 0.943720 13.351202 -0.000000 0.000000 0.000000 -1.453471 -0.808370 0.308072 0.000000 0.000000 0.000000 -0.570226 -4.799999 0.856860 1.583942 2.829764 -0.330183 8.802780 0.968473 1.459730 -12.555365 2.025489 -1.908250 0.000000 0.000000 0.000000 0.000000 0.000000 0.000000 -3.725672 -1.009294 -1.403184 3.700520 1.098044 1.334885 1.048504 -2.181002 4.346624 -8.104118 0.044026 -3.788258 0.000000 0.000000 0.000000 0.000000 0.000000 0.000000 -0.363317 0.943720 13.351202 0.420501 0.871631 -0.070456 -2.212344 -1.390725 6.261800 0.000000 0.000000 0.000000 -0.363317 0.943720 13.351202 -0.000000 0.000000 0.000000 3.738144 13.553207 -5.806982 0.000000 0.000000 0.000000
60.315524 82.661787 220.762095 0.145780 -1.006343 -13.338839 -0.374061 0.945551 13.343206 -0.000000 0.000000 0.000000 -1.482861 -0.884432 0.312558 0.000000 0.000000 0.000000 -0.582993 -4.734028 0.844289 1.602061 2.687362 -0.298078 9.066309 0.734556 1.523745 -13.550453 1.797160 -1.904700 0.000000 0.000000 0.000000 0.000000 0.000000 0.000000 -3.052761 -1.177658 -1.279456 3.026420 1.243841 1.215215 0.936238 -2.026124 4.041652 -8.510858 0.757858 -4.236629 0.000000 0.000000 0.000000 0.000000 0.000000 0.000000 -1.159586 1.229896 13.388960 1.071133 0.396909 -0.094096 -5.289852 -3.650284 15.063145 0.000000 0.000000 0.000000 -0.374061 0.945551 13.343206 -0.000000 0.000000 0.000000 2.162376 12.069281 -4.161522 0.000000 0.000000 0.000000
60.292403 82.665878 220.789058 0.159078 -0.996400 -13.296748 -0.384021 0.933090 13.301259 -0.000000 0.000000 0.000000 -1.545669 -0.962475 0.324247 0.000000 0.000000 0.000000 -0.618964 -4.701656 0.836518 1.654384 2.586234 -0.273923 9.408295 0.885590 1.559114 -14.219476 2.388519 -1.905915 0.000000 0.000000 0.000000 0.000000 0.000000 0.000000 -2.712517 -1.230817 -1.204056 2.686734 1.286158 1.144752 0.871310 -1.898595 3.782395 -8.405797 0.808061 -4.145104 0.000000 0.000000 0.000000 0.000000 0.000000 0.000000 -1.180997 1.268268 13.344321 1.100371 0.469898 -0.100549 -8.809748 -8.246384 22.811841 0.000000 0.000000 0.000000 -0.384021 0.933090 13.301259 -0.000000 0.000000 0.000000 -0.783369 9.965434 -1.241530 0.000000 0.000000 0.000000
60.262539 82.669425 220.811750 0.168929 -0.980219 -13.259186 -0.389286 0.915333 13.263740 -0.000000 0.000000 0.000000 -1.541896 -0.993255 0.322612 0.000000 0.000000 0.000000 -0.713895 -4.580807 0.809783 1.801998 2.323812 -0.210042 9.556770 1.598760 1.461048 -14.758679 0.354025 -2.119918 0.000000 0.000000 0.000000 0.000000 0.000000 0.000000 -2.526721 -1.299900 -1.178224 2.500154 1.350314 1.120089 0.771837 -1.747908 3.485444 -7.295557 1.255788 -4.160686 0.000000 0.000000 0.000000 0.000000 0.000000 0.000000 -1.193510 1.307891 13.303220 1.111728 0.549055 -0.107228 -10.965843 -11.901947 27.919154 0.000000 0.000000 0.000000 -0.389286 0.915333 13.263740 -0.000000 0.000000 0.000000 -3.170809 4.903395 1.691901 0.000000 0.000000 0.000000
60.216466 82.674983 220.832148 0.160585 -0.966392 -13.274223 -0.378227 0.903689 13.278561 -0.000000 0.000000 0.000000 -1.484651 -0.834280 0.314247 0.000000 0.000000 0.000000 -0.887397 -4.352022 0.760058 2.055505 1.939560 -0.116760 8.890581 2.128756 1.218777 -13.961094 -1.276152 -2.160035 0.000000 0.000000 0.000000 0.000000 0.000000 0.000000 -2.422893 -1.349661 -1.167986 2.395594 1.397561 1.110221 0.687958 -1.524630 3.025400 -5.517817 0.647257 -3.198850 0.000000 0.000000 0.000000 0.000000 0.000000 0.000000 -1.162547 1.334712 13.313435 1.166913 0.723231 -0.119552 -12.880020 -15.990889 29.837946 0.000000 0.000000 0.000000 -0.378227 0.903689 13.278561 -0.000000 0.000000 0.000000 -2.797627 7.752621 0.865405 0.000000 0.000000 0.000000
